<svg xmlns="http://www.w3.org/2000/svg" viewBox="0 0 64 64" width="64" height="64">
  <defs>
    <radialGradient id="bg" cx="50%" cy="42%" r="75%">
      <stop offset="0%" stop-color="#070c15" />
      <stop offset="100%" stop-color="#010307" />
    </radialGradient>
    <linearGradient id="eye" x1="14" y1="32" x2="50" y2="32" gradientUnits="userSpaceOnUse">
      <stop offset="0%" stop-color="#00F0FF" stop-opacity="0.12" />
      <stop offset="50%" stop-color="#00F0FF" stop-opacity="0.32" />
      <stop offset="100%" stop-color="#00F0FF" stop-opacity="0.12" />
    </linearGradient>
  </defs>
  <rect width="64" height="64" rx="14" fill="url(#bg)" />
  <g transform="translate(32 32) scale(1.18) translate(-32 -32)">
  <path d="M32 7 L50 14 L57 32 L50 50 L32 57 L14 50 L7 32 L14 14 Z" fill="none" stroke="#00F0FF" stroke-opacity="0.8" stroke-width="2.6" />
  <path d="M32 12 L46 18 L52 32 L46 46 L32 52 L18 46 L12 32 L18 18 Z" fill="none" stroke="#00F0FF" stroke-opacity="0.5" stroke-width="1.4" stroke-dasharray="3 4" />
  <path d="M14 32 Q32 18 50 32 Q32 46 14 32 Z" fill="url(#eye)" stroke="#00F0FF" stroke-opacity="1" stroke-width="2.8" />
  <circle cx="32" cy="32" r="6.8" fill="#050a12" stroke="#00F0FF" stroke-opacity="1" stroke-width="2.4" />
  <circle cx="30" cy="29.6" r="2" fill="#fff" fill-opacity="0.95" />
  <path d="M20 32 H44" stroke="#00F0FF" stroke-opacity="0.5" stroke-width="1.4" />
  </g>
</svg>
