<svg xmlns="http://www.w3.org/2000/svg" viewBox="3 3 58 58">
  <defs>
    <radialGradient id="halo" cx="50%" cy="50%" r="64%">
      <stop offset="0%" stop-color="#00F0FF" stop-opacity="0.5" />
      <stop offset="62%" stop-color="#00F0FF" stop-opacity="0.2" />
      <stop offset="100%" stop-color="#000" stop-opacity="0" />
    </radialGradient>
    <linearGradient id="eye" x1="14" y1="32" x2="50" y2="32" gradientUnits="userSpaceOnUse">
      <stop offset="0%" stop-color="#00F0FF" stop-opacity="0.12" />
      <stop offset="50%" stop-color="#00F0FF" stop-opacity="0.32" />
      <stop offset="100%" stop-color="#00F0FF" stop-opacity="0.12" />
    </linearGradient>
  </defs>
  <circle cx="32" cy="32" r="30" fill="url(#halo)" />
  <path d="M32 5 L51 13 L59 32 L51 51 L32 59 L13 51 L5 32 L13 13 Z" fill="none" stroke="#00F0FF" stroke-opacity="0.8" stroke-width="2.6" />
  <path d="M32 10 L47 17 L54 32 L47 47 L32 54 L17 47 L10 32 L17 17 Z" fill="none" stroke="#00F0FF" stroke-opacity="0.5" stroke-width="1.4" stroke-dasharray="3 4" />
  <path d="M14 32 Q32 18 50 32 Q32 46 14 32 Z" fill="url(#eye)" stroke="#00F0FF" stroke-opacity="1" stroke-width="2.8" />
  <circle cx="32" cy="32" r="6.8" fill="#050a12" stroke="#00F0FF" stroke-opacity="1" stroke-width="2.4" />
  <circle cx="30" cy="29.6" r="2" fill="#fff" fill-opacity="0.95" />
  <path d="M20 32 H44" stroke="#00F0FF" stroke-opacity="0.5" stroke-width="1.4" />
</svg>
